<svg width="102" height="32" viewBox="0 0 102 32" fill="none" xmlns="http://www.w3.org/2000/svg">
<path d="M15.2933 16.56C15.2616 16.56 15.2457 16.5758 15.2457 16.6076V17.7924C15.2457 17.8242 15.2622 17.84 15.2952 17.84H16.4248C16.4921 17.84 16.5258 17.8737 16.5258 17.9409V19.0191C16.5258 19.0889 16.5607 19.1238 16.6305 19.1238H17.6953C17.7676 19.1238 17.8038 19.16 17.8038 19.2324V20.2972C17.8038 20.3682 17.8393 20.4038 17.9105 20.4038H19.1409C19.1703 20.4037 19.1988 20.4144 19.2208 20.4341C19.243 20.4537 19.2573 20.4809 19.2609 20.5105C19.3549 21.2609 19.5118 22.0057 19.7314 22.7447C19.7439 22.7866 19.7464 22.8307 19.7388 22.8737C19.7312 22.9167 19.7136 22.9572 19.6875 22.9922C19.6614 23.0272 19.6275 23.0556 19.5885 23.0751C19.5495 23.0947 19.5065 23.1048 19.4628 23.1047H14.6114C14.5467 23.1049 14.4839 23.0823 14.4341 23.0408C14.3843 22.9994 14.3507 22.9418 14.3391 22.8781C14.2375 22.3321 14.1225 21.854 13.9943 21.4438C13.8533 20.9956 13.5721 20.7492 13.1505 20.7047C12.8521 20.6742 12.3365 20.7022 11.6038 20.7886C10.2076 20.9524 10.3352 19.5581 10.2133 18.6533C10.141 18.1111 9.84889 17.7042 9.33714 17.4324C9.2127 17.3676 9.14793 17.2292 9.14286 17.0172C9.13905 16.9028 9.19683 16.7778 9.31619 16.6419C9.87809 16.0057 10.3105 15.4933 10.2362 14.541C10.1994 14.0825 10.181 13.654 10.181 13.2552C10.1791 11.3619 11.7162 9.81905 13.5162 9.22667C14.8533 8.78476 16.2514 8.78032 17.7105 9.21333C17.774 9.23238 17.8058 9.27493 17.8058 9.34095V10.0571C17.8058 10.0834 17.7955 10.1086 17.7773 10.1272C17.7591 10.1458 17.7343 10.1562 17.7086 10.1562H16.5658C16.5391 10.1562 16.5258 10.1695 16.5258 10.1962V11.3867C16.5258 11.421 16.5423 11.4381 16.5753 11.4381H17.72C17.7809 11.4381 17.8114 11.4679 17.8114 11.5276V12.6171C17.8114 12.6806 17.8425 12.7124 17.9048 12.7124H19.04C19.0692 12.7124 19.0838 12.727 19.0838 12.7562V13.9543C19.0838 13.9797 19.0711 13.9924 19.0458 13.9924H17.9067C17.8393 13.9924 17.8058 14.026 17.8058 14.0933V15.1848C17.8058 15.2419 17.7772 15.2705 17.72 15.2705H16.6286C16.5613 15.2705 16.5276 15.3041 16.5276 15.3714V16.4476C16.5276 16.4774 16.5156 16.506 16.4942 16.5271C16.4728 16.5482 16.4437 16.56 16.4133 16.56H15.2933ZM14.0505 11.523C14.0505 11.512 14.0484 11.5011 14.0442 11.4909C14.04 11.4808 14.0338 11.4715 14.0261 11.4637C14.0183 11.4559 14.0091 11.4497 13.9989 11.4455C13.9887 11.4413 13.9778 11.4391 13.9668 11.4391L12.8507 11.4371C12.8396 11.4371 12.8287 11.4393 12.8186 11.4434C12.8084 11.4476 12.7991 11.4538 12.7913 11.4616C12.7835 11.4693 12.7774 11.4786 12.7731 11.4887C12.7689 11.4989 12.7667 11.5098 12.7667 11.5208L12.7647 12.637C12.7647 12.648 12.7669 12.6589 12.7711 12.6691C12.7753 12.6792 12.7814 12.6885 12.7892 12.6963C12.797 12.7041 12.8062 12.7103 12.8163 12.7145C12.8265 12.7187 12.8374 12.7209 12.8484 12.7209L13.9646 12.7229C13.9756 12.7229 13.9865 12.7208 13.9967 12.7166C14.0069 12.7124 14.0161 12.7062 14.0239 12.6984C14.0317 12.6907 14.0379 12.6814 14.0421 12.6713C14.0463 12.6611 14.0485 12.6502 14.0486 12.6392L14.0505 11.523ZM16.6038 12.0073C16.6038 11.9963 16.6015 11.9854 16.5973 11.9752C16.593 11.9651 16.5868 11.9559 16.579 11.9481C16.5713 11.9404 16.5619 11.9342 16.5518 11.93C16.5416 11.9259 16.5307 11.9237 16.5197 11.9238L15.4073 11.9277C15.3963 11.9277 15.3854 11.9299 15.3752 11.9342C15.3651 11.9384 15.3559 11.9446 15.3481 11.9524C15.3404 11.9602 15.3342 11.9695 15.33 11.9797C15.3259 11.9898 15.3237 12.0008 15.3238 12.0118L15.3277 13.1241C15.3277 13.1351 15.3299 13.146 15.3341 13.1562C15.3384 13.1663 15.3446 13.1756 15.3524 13.1833C15.3602 13.1911 15.3695 13.1972 15.3797 13.2014C15.3898 13.2056 15.4008 13.2077 15.4118 13.2077L16.5242 13.2038C16.5352 13.2037 16.546 13.2015 16.5562 13.1973C16.5663 13.193 16.5756 13.1868 16.5833 13.179C16.5911 13.1712 16.5973 13.162 16.6014 13.1518C16.6056 13.1416 16.6077 13.1307 16.6077 13.1197L16.6038 12.0073ZM15.6466 13.7303C15.6466 13.7203 15.6446 13.7104 15.6408 13.7012C15.6369 13.6919 15.6313 13.6835 15.6242 13.6765C15.6171 13.6694 15.6087 13.6638 15.5995 13.66C15.5902 13.6562 15.5803 13.6542 15.5703 13.6542L14.4427 13.6562C14.4327 13.6563 14.4228 13.6582 14.4135 13.6621C14.4043 13.6659 14.3959 13.6716 14.3889 13.6786C14.3818 13.6857 14.3762 13.6941 14.3724 13.7034C14.3686 13.7126 14.3666 13.7226 14.3666 13.7326L14.3686 14.8602C14.3686 14.8702 14.3706 14.8801 14.3745 14.8893C14.3783 14.8986 14.3839 14.9069 14.391 14.914C14.3981 14.9211 14.4065 14.9267 14.4158 14.9305C14.425 14.9343 14.4349 14.9363 14.4449 14.9362L15.5726 14.9342C15.5826 14.9342 15.5925 14.9322 15.6017 14.9284C15.6109 14.9245 15.6193 14.9189 15.6264 14.9118C15.6335 14.9048 15.6391 14.8963 15.6429 14.8871C15.6467 14.8778 15.6486 14.8679 15.6486 14.8579L15.6466 13.7303ZM15.9838 19.5097C15.9839 19.4984 15.9817 19.4873 15.9774 19.4769C15.9731 19.4665 15.9668 19.457 15.9588 19.4491C15.9509 19.4411 15.9415 19.4347 15.9311 19.4304C15.9207 19.4261 15.9095 19.4238 15.8983 19.4238L14.7859 19.4219C14.7746 19.4218 14.7635 19.4241 14.7531 19.4283C14.7427 19.4327 14.7332 19.4389 14.7252 19.4469C14.7173 19.4548 14.7109 19.4642 14.7066 19.4747C14.7023 19.4851 14.7 19.4962 14.7 19.5074L14.6981 20.6198C14.6981 20.6311 14.7003 20.6422 14.7045 20.6527C14.7088 20.6631 14.7151 20.6725 14.7231 20.6805C14.731 20.6884 14.7405 20.6948 14.7509 20.6991C14.7612 20.7034 14.7724 20.7057 14.7836 20.7057L15.896 20.7077C15.9073 20.7077 15.9184 20.7055 15.9288 20.7012C15.9392 20.6969 15.9487 20.6906 15.9567 20.6827C15.9647 20.6747 15.971 20.6652 15.9753 20.6548C15.9796 20.6445 15.9819 20.6333 15.9819 20.6221L15.9838 19.5097Z" fill="white"/>
<path d="M19.3151 10.0809L18.1989 10.0829C18.1526 10.083 18.1152 10.1206 18.1152 10.1668L18.1172 11.2792C18.1172 11.3255 18.1548 11.363 18.2011 11.3629L19.3173 11.3609C19.3636 11.3609 19.4011 11.3233 19.401 11.277L19.399 10.1646C19.3989 10.1183 19.3613 10.0809 19.3151 10.0809Z" fill="white"/>
<path d="M20.9303 11.0047L19.7989 11.0067C19.7578 11.0068 19.7247 11.0401 19.7248 11.0811L19.7267 12.2125C19.7268 12.2536 19.7601 12.2868 19.8011 12.2867L20.9326 12.2847C20.9736 12.2846 21.0068 12.2513 21.0067 12.2103L21.0048 11.0789C21.0047 11.0379 20.9713 11.0047 20.9303 11.0047Z" fill="white"/>
<path d="M22.7912 12.2523L21.656 12.2543C21.615 12.2544 21.5818 12.2877 21.5818 12.3287L21.5838 13.464C21.5839 13.505 21.6173 13.5382 21.6583 13.5381L22.7935 13.5361C22.8345 13.5361 22.8678 13.5028 22.8677 13.4617L22.8657 12.3265C22.8656 12.2855 22.8322 12.2523 22.7912 12.2523Z" fill="white"/>
<path d="M20.9939 13.7771L19.8816 13.781C19.8342 13.7812 19.796 13.8197 19.7962 13.867L19.8 14.9794C19.8002 15.0267 19.8387 15.065 19.8861 15.0648L20.9984 15.0609C21.0457 15.0608 21.084 15.0222 21.0838 14.9749L21.08 13.8625C21.0798 13.8152 21.0412 13.7769 20.9939 13.7771Z" fill="white"/>
<path d="M19.4678 15.0124L18.3516 15.0105C18.3063 15.0104 18.2697 15.047 18.2696 15.0922L18.2676 16.2084C18.2675 16.2536 18.3042 16.2904 18.3493 16.2904L19.4656 16.2924C19.5108 16.2925 19.5475 16.2559 19.5476 16.2106L19.5496 15.0944C19.5496 15.0492 19.513 15.0125 19.4678 15.0124Z" fill="white"/>
<path d="M18.0998 16.5571L16.976 16.5591C16.9318 16.5592 16.8961 16.595 16.8962 16.6392L16.8982 17.763C16.8982 17.8072 16.9341 17.843 16.9783 17.8429L18.1021 17.8409C18.1463 17.8408 18.182 17.805 18.1819 17.7608L18.18 16.637C18.1799 16.5928 18.144 16.557 18.0998 16.5571Z" fill="white"/>
<path d="M20.8937 16.7106L19.7661 16.7066C19.7229 16.7064 19.6878 16.7413 19.6877 16.7844L19.6838 17.9121C19.6836 17.9552 19.7184 17.9902 19.7616 17.9904L20.8892 17.9943C20.9323 17.9945 20.9674 17.9597 20.9676 17.9165L20.9715 16.7889C20.9717 16.7457 20.9368 16.7107 20.8937 16.7106Z" fill="white"/>
<path d="M19.6537 18.3971L18.5337 18.4029C18.4886 18.4032 18.4521 18.44 18.4523 18.4853L18.4582 19.6053C18.4584 19.6505 18.4952 19.687 18.5405 19.6868L19.6605 19.6808C19.7057 19.6807 19.7422 19.6438 19.742 19.5985L19.7361 18.4786C19.7358 18.4333 19.699 18.3968 19.6537 18.3971Z" fill="white"/>
<path d="M21.7927 19.2038L20.6765 19.2C20.6302 19.1998 20.5926 19.2372 20.5924 19.2835L20.5885 20.3997C20.5883 20.4459 20.6258 20.4836 20.6721 20.4838L21.7882 20.4877C21.8345 20.4878 21.8722 20.4504 21.8723 20.4042L21.8762 19.2879C21.8764 19.2417 21.839 19.204 21.7927 19.2038Z" fill="white"/>
<path d="M28.7585 20V11.2727H30.6037V18.4787H34.3452V20H28.7585ZM41.0777 11.2727H42.9229V16.9403C42.9229 17.5767 42.7709 18.1335 42.4669 18.6108C42.1658 19.0881 41.7439 19.4602 41.2013 19.7273C40.6587 19.9915 40.0266 20.1236 39.305 20.1236C38.5806 20.1236 37.9471 19.9915 37.4044 19.7273C36.8618 19.4602 36.44 19.0881 36.1388 18.6108C35.8377 18.1335 35.6871 17.5767 35.6871 16.9403V11.2727H37.5323V16.7827C37.5323 17.1151 37.6047 17.4105 37.7496 17.669C37.8973 17.9276 38.1047 18.1307 38.3718 18.2784C38.6388 18.4261 38.9499 18.5 39.305 18.5C39.663 18.5 39.974 18.4261 40.2383 18.2784C40.5053 18.1307 40.7113 17.9276 40.8562 17.669C41.0039 17.4105 41.0777 17.1151 41.0777 16.7827V11.2727ZM47.6548 20H44.561V11.2727H47.6803C48.5582 11.2727 49.3139 11.4474 49.9474 11.7969C50.5809 12.1435 51.0681 12.642 51.409 13.2926C51.7528 13.9432 51.9247 14.7216 51.9247 15.6278C51.9247 16.5369 51.7528 17.3182 51.409 17.9716C51.0681 18.625 50.5781 19.1264 49.9389 19.4759C49.3025 19.8253 48.5411 20 47.6548 20ZM46.4062 18.419H47.5781C48.1235 18.419 48.5823 18.3224 48.9545 18.1293C49.3295 17.9332 49.6107 17.6307 49.7982 17.2216C49.9886 16.8097 50.0837 16.2784 50.0837 15.6278C50.0837 14.983 49.9886 14.456 49.7982 14.0469C49.6107 13.6378 49.3309 13.3366 48.9587 13.1435C48.5866 12.9503 48.1278 12.8537 47.5823 12.8537H46.4062V18.419ZM53.4115 20V11.2727H59.2922V12.794H55.2567V14.8736H58.9896V16.3949H55.2567V18.4787H59.3092V20H53.4115ZM68.5794 14.3281H66.713C66.6789 14.0866 66.6093 13.8722 66.5041 13.6847C66.399 13.4943 66.2641 13.3324 66.0993 13.1989C65.9345 13.0653 65.7442 12.9631 65.5283 12.892C65.3152 12.821 65.0837 12.7855 64.8337 12.7855C64.382 12.7855 63.9885 12.8977 63.6533 13.1222C63.3181 13.3437 63.0581 13.6676 62.8735 14.0938C62.6888 14.517 62.5965 15.0312 62.5965 15.6364C62.5965 16.2585 62.6888 16.7812 62.8735 17.2045C63.061 17.6278 63.3223 17.9474 63.6576 18.1634C63.9928 18.3793 64.3806 18.4872 64.8209 18.4872C65.0681 18.4872 65.2968 18.4545 65.507 18.3892C65.7201 18.3239 65.909 18.2287 66.0737 18.1037C66.2385 17.9759 66.3749 17.821 66.4828 17.6392C66.5936 17.4574 66.6703 17.25 66.713 17.017L68.5794 17.0256C68.5311 17.4261 68.4104 17.8125 68.2172 18.1847C68.0269 18.554 67.7698 18.8849 67.4459 19.1776C67.1249 19.4673 66.7414 19.6974 66.2953 19.8679C65.8522 20.0355 65.3507 20.1193 64.7911 20.1193C64.0127 20.1193 63.3166 19.9432 62.703 19.5909C62.0922 19.2386 61.6093 18.7287 61.2541 18.0611C60.9019 17.3935 60.7257 16.5852 60.7257 15.6364C60.7257 14.6847 60.9047 13.875 61.2627 13.2074C61.6206 12.5398 62.1064 12.0312 62.7201 11.6818C63.3337 11.3295 64.024 11.1534 64.7911 11.1534C65.2968 11.1534 65.7655 11.2244 66.1973 11.3665C66.632 11.5085 67.0169 11.7159 67.3522 11.9886C67.6874 12.2585 67.9601 12.5895 68.1703 12.9815C68.3834 13.3736 68.5198 13.8224 68.5794 14.3281ZM70.0226 20V11.2727H71.8678V15.1207H71.9828L75.1234 11.2727H77.3351L74.0964 15.1804L77.3734 20H75.166L72.7754 16.4119L71.8678 17.5199V20H70.0226ZM78.416 20V11.2727H84.2967V12.794H80.2612V14.8736H83.9941V16.3949H80.2612V18.4787H84.3138V20H78.416ZM85.8837 20V11.2727H89.3269C89.986 11.2727 90.5485 11.3906 91.0144 11.6264C91.4831 11.8594 91.8396 12.1903 92.084 12.6193C92.3311 13.0455 92.4547 13.5469 92.4547 14.1236C92.4547 14.7031 92.3297 15.2017 92.0797 15.6193C91.8297 16.0341 91.4675 16.3523 90.9931 16.5739C90.5215 16.7955 89.9504 16.9062 89.28 16.9062H86.9746V15.4233H88.9817C89.334 15.4233 89.6266 15.375 89.8595 15.2784C90.0925 15.1818 90.2658 15.0369 90.3794 14.8438C90.4959 14.6506 90.5541 14.4105 90.5541 14.1236C90.5541 13.8338 90.4959 13.5895 90.3794 13.3906C90.2658 13.1918 90.0911 13.0412 89.8553 12.9389C89.6223 12.8338 89.3283 12.7812 88.9732 12.7812H87.7288V20H85.8837ZM90.5967 16.0284L92.7658 20H90.7288L88.6067 16.0284H90.5967Z" fill="white"/>
</svg>
