<svg viewBox="0 0 192 192" fill="none" xmlns="http://www.w3.org/2000/svg">
<style>path{fill:#171717}@media (prefers-color-scheme:dark){path{fill:#fafafa}}</style>
<path d="M87.52 102.72C87.1391 102.72 86.9486 102.91 86.9486 103.291V117.509C86.9486 117.89 87.1467 118.08 87.5429 118.08H101.097C101.905 118.08 102.309 118.484 102.309 119.291V132.229C102.309 133.067 102.728 133.486 103.566 133.486H116.343C117.211 133.486 117.646 133.92 117.646 134.789V147.566C117.646 148.419 118.072 148.846 118.926 148.846H133.691C134.044 148.844 134.385 148.973 134.65 149.209C134.916 149.444 135.087 149.771 135.131 150.126C136.259 159.131 138.141 168.069 140.777 176.937C140.927 177.439 140.957 177.969 140.866 178.484C140.774 179 140.563 179.487 140.25 179.906C139.937 180.326 139.53 180.667 139.062 180.901C138.594 181.136 138.078 181.258 137.554 181.257H79.3371C78.5598 181.259 77.8066 180.988 77.2091 180.49C76.6117 179.993 76.2079 179.302 76.0686 178.537C74.8495 171.985 73.4705 166.248 71.9314 161.326C70.24 155.947 66.8648 152.99 61.8057 152.457C58.2248 152.091 52.0381 152.427 43.2457 153.463C26.4914 155.429 28.0229 138.697 26.56 127.84C25.6914 121.333 22.1867 116.45 16.0457 113.189C14.5524 112.411 13.7752 110.75 13.7143 108.206C13.6686 106.834 14.3619 105.333 15.7943 103.703C22.5371 96.0686 27.7257 89.92 26.8343 78.4914C26.3924 72.9905 26.1714 67.8476 26.1714 63.0629C26.1486 40.3429 44.5943 21.8286 66.1943 14.72C82.24 9.41715 99.0171 9.36381 116.526 14.56C117.288 14.7886 117.669 15.2991 117.669 16.0914V24.6857C117.669 25.0009 117.546 25.3033 117.327 25.5262C117.109 25.7491 116.812 25.8743 116.503 25.8743H102.789C102.469 25.8743 102.309 26.0343 102.309 26.3543V40.64C102.309 41.0514 102.507 41.2571 102.903 41.2571H116.64C117.371 41.2571 117.737 41.6152 117.737 42.3314V55.4057C117.737 56.1676 118.11 56.5486 118.857 56.5486H132.48C132.83 56.5486 133.006 56.7238 133.006 57.0743V71.4514C133.006 71.7562 132.853 71.9086 132.549 71.9086H118.88C118.072 71.9086 117.669 72.3124 117.669 73.12V86.2171C117.669 86.9029 117.326 87.2457 116.64 87.2457H103.543C102.735 87.2457 102.331 87.6495 102.331 88.4571V101.371C102.331 101.729 102.187 102.072 101.93 102.325C101.673 102.578 101.324 102.72 100.96 102.72H87.52ZM72.6059 42.2763C72.6062 42.1443 72.5804 42.0134 72.5301 41.8913C72.4798 41.7692 72.4059 41.6582 72.3127 41.5647C72.2195 41.4711 72.1087 41.3968 71.9868 41.3461C71.8649 41.2953 71.7341 41.269 71.6021 41.2688L58.2078 41.2455C58.0757 41.2453 57.9449 41.271 57.8228 41.3213C57.7007 41.3717 57.5896 41.4455 57.4961 41.5388C57.4025 41.632 57.3282 41.7427 57.2775 41.8646C57.2267 41.9866 57.2005 42.1173 57.2002 42.2494L57.1769 55.6437C57.1767 55.7757 57.2024 55.9066 57.2528 56.0287C57.3031 56.1508 57.377 56.2618 57.4702 56.3553C57.5634 56.4489 57.6741 56.5232 57.7961 56.574C57.918 56.6247 58.0487 56.651 58.1808 56.6512L71.5751 56.6745C71.7072 56.6748 71.838 56.649 71.9601 56.5987C72.0822 56.5483 72.1932 56.4745 72.2868 56.3812C72.3803 56.288 72.4546 56.1773 72.5054 56.0554C72.5561 55.9334 72.5824 55.8027 72.5826 55.6706L72.6059 42.2763ZM103.245 48.0875C103.245 47.9555 103.218 47.8248 103.167 47.7029C103.116 47.5811 103.042 47.4705 102.948 47.3774C102.855 47.2843 102.743 47.2106 102.621 47.1605C102.499 47.1104 102.368 47.0848 102.236 47.0853L88.8875 47.1319C88.7555 47.1323 88.6248 47.1588 88.5029 47.2098C88.3811 47.2607 88.2705 47.3352 88.1774 47.4289C88.0843 47.5226 88.0106 47.6337 87.9605 47.7559C87.9104 47.8781 87.8848 48.009 87.8853 48.141L87.9319 61.4896C87.9323 61.6217 87.9588 61.7524 88.0097 61.8742C88.0607 61.9961 88.1352 62.1067 88.2289 62.1998C88.3226 62.2928 88.4337 62.3665 88.5559 62.4167C88.6781 62.4668 88.809 62.4923 88.941 62.4919L102.29 62.4453C102.422 62.4448 102.552 62.4184 102.674 62.3674C102.796 62.3164 102.907 62.242 103 62.1483C103.093 62.0546 103.167 61.9434 103.217 61.8213C103.267 61.6991 103.292 61.5682 103.292 61.4361L103.245 48.0875ZM91.7595 68.7637C91.7593 68.6436 91.7355 68.5247 91.6893 68.4139C91.6432 68.3031 91.5757 68.2024 91.4906 68.1176C91.4056 68.0329 91.3047 67.9657 91.1937 67.92C91.0827 67.8742 90.9637 67.8508 90.8437 67.851L77.3122 67.8747C77.1922 67.875 77.0733 67.8988 76.9625 67.945C76.8516 67.9911 76.751 68.0586 76.6662 68.1437C76.5814 68.2287 76.5143 68.3296 76.4685 68.4406C76.4228 68.5516 76.3993 68.6706 76.3995 68.7906L76.4233 82.3221C76.4235 82.4421 76.4474 82.561 76.4935 82.6718C76.5397 82.7827 76.6072 82.8833 76.6922 82.9681C76.7773 83.0528 76.8782 83.12 76.9892 83.1658C77.1002 83.2115 77.2191 83.235 77.3392 83.2347L90.8706 83.211C90.9907 83.2108 91.1095 83.1869 91.2204 83.1408C91.3312 83.0946 91.4319 83.0271 91.5167 82.9421C91.6014 82.857 91.6686 82.7561 91.7143 82.6451C91.7601 82.5341 91.7835 82.4152 91.7833 82.2951L91.7595 68.7637ZM95.8059 138.116C95.8062 137.981 95.7798 137.847 95.7284 137.723C95.6769 137.598 95.6013 137.484 95.506 137.389C95.4106 137.293 95.2974 137.217 95.1727 137.165C95.048 137.113 94.9143 137.086 94.7792 137.086L81.4306 137.063C81.2956 137.062 81.1618 137.089 81.0369 137.14C80.912 137.192 80.7985 137.267 80.7028 137.363C80.6071 137.458 80.5311 137.571 80.4792 137.696C80.4273 137.821 80.4005 137.954 80.4002 138.089L80.3769 151.438C80.3767 151.573 80.403 151.707 80.4545 151.832C80.506 151.957 80.5815 152.07 80.6769 152.166C80.7722 152.261 80.8855 152.337 81.0102 152.389C81.1349 152.441 81.2686 152.468 81.4037 152.468L94.7522 152.492C94.8873 152.492 95.0211 152.466 95.146 152.414C95.2709 152.363 95.3844 152.287 95.4801 152.192C95.5758 152.096 95.6517 151.983 95.7036 151.858C95.7555 151.734 95.7824 151.6 95.7826 151.465L95.8059 138.116Z"/>
<path d="M135.781 24.9712L122.387 24.9946C121.831 24.9955 121.382 25.4466 121.383 26.002L121.406 39.3506C121.407 39.906 121.858 40.3555 122.413 40.3545L135.808 40.3311C136.363 40.3302 136.813 39.8791 136.812 39.3237L136.788 25.9751C136.787 25.4197 136.336 24.9702 135.781 24.9712Z"/>
<path d="M155.164 36.0567L141.587 36.0804C141.094 36.0813 140.696 36.4811 140.697 36.9734L140.72 50.5505C140.721 51.0429 141.121 51.4413 141.613 51.4404L155.191 51.4167C155.683 51.4158 156.081 51.016 156.08 50.5237L156.057 36.9466C156.056 36.4543 155.656 36.0559 155.164 36.0567Z"/>
<path d="M177.495 51.0281L163.872 51.0519C163.38 51.0528 162.982 51.4526 162.982 51.9449L163.006 65.5677C163.007 66.06 163.407 66.4584 163.899 66.4576L177.522 66.4338C178.014 66.433 178.413 66.0331 178.412 65.5408L178.388 51.918C178.387 51.4257 177.987 51.0273 177.495 51.0281Z"/>
<path d="M155.927 69.3253L142.579 69.3719C142.011 69.3739 141.552 69.836 141.554 70.4041L141.6 83.7526C141.602 84.3206 142.065 84.7795 142.633 84.7775L155.981 84.7309C156.549 84.729 157.008 84.2669 157.006 83.6988L156.96 70.3503C156.958 69.7822 156.495 69.3233 155.927 69.3253Z"/>
<path d="M137.613 84.1488L124.219 84.1255C123.676 84.1245 123.236 84.5638 123.235 85.1066L123.211 98.5009C123.21 99.0437 123.65 99.4845 124.192 99.4854L137.587 99.5088C138.129 99.5098 138.57 99.0705 138.571 98.5277L138.595 85.1334C138.595 84.5906 138.156 84.1498 137.613 84.1488Z"/>
<path d="M121.198 102.685L107.712 102.709C107.182 102.71 106.753 103.14 106.754 103.671L106.778 117.156C106.778 117.686 107.209 118.116 107.739 118.115L121.225 118.091C121.755 118.09 122.184 117.66 122.183 117.129L122.16 103.644C122.159 103.114 121.728 102.684 121.198 102.685Z"/>
<path d="M154.724 104.527L141.193 104.479C140.675 104.477 140.254 104.896 140.252 105.413L140.205 118.945C140.203 119.462 140.621 119.883 141.139 119.885L154.67 119.932C155.188 119.934 155.609 119.516 155.611 118.998L155.658 105.467C155.66 104.949 155.242 104.528 154.724 104.527Z"/>
<path d="M139.845 124.765L126.405 124.835C125.863 124.838 125.425 125.28 125.428 125.823L125.498 139.263C125.501 139.806 125.943 140.244 126.486 140.241L139.926 140.17C140.469 140.168 140.906 139.725 140.904 139.182L140.833 125.743C140.83 125.2 140.388 124.762 139.845 124.765Z"/>
<path d="M165.513 134.446L152.118 134.4C151.563 134.398 151.111 134.846 151.109 135.402L151.062 148.796C151.06 149.351 151.509 149.803 152.065 149.805L165.459 149.852C166.014 149.854 166.466 149.405 166.468 148.85L166.515 135.455C166.517 134.9 166.068 134.448 165.513 134.446Z"/>
</svg>
